<svg id="hull_icon_library" height="0" version="1.1" xmlns="http://www.w3.org/2000/svg" style="position:absolute; margin-left: -100%" xmlns:xlink="http://www.w3.org/1999/xlink">
  <g id="hull_icon_google">
    <g>
      <path fill="#C31718" d="M16,32c8.836,0,16-7.164,16-16S24.837,0,16,0S0,7.164,0,16S7.164,32,16,32"></path>
      <path fill="#FFFFFF" d="M13.354,23.165c-1.903,0-3.276-1.203-3.276-2.648c0-1.418,1.705-2.599,3.606-2.577
    c0.443,0.004,0.857,0.076,1.233,0.197c1.032,0.719,1.772,1.124,1.981,1.942c0.04,0.166,0.061,0.336,0.061,0.511
    C16.959,22.036,16.027,23.165,13.354,23.165 M13.853,14.685c-1.276-0.038-2.49-1.428-2.71-3.104
    c-0.221-1.678,0.636-2.96,1.912-2.922s2.49,1.383,2.71,3.06C15.985,13.395,15.129,14.723,13.853,14.685 M16.5,17.168
    c-0.448-0.317-1.304-1.088-1.304-1.541c0-0.533,0.151-0.794,0.951-1.418c0.819-0.641,1.4-1.541,1.4-2.588
    c0-1.246-0.556-2.461-1.598-2.862h1.571l1.109-0.801h-4.956c-2.221,0-4.312,1.683-4.312,3.632c0,1.992,1.514,3.6,3.774,3.6
    c0.157,0,0.31-0.003,0.459-0.013c-0.146,0.279-0.252,0.598-0.252,0.925c0,0.554,0.298,1.003,0.675,1.369
    c-0.285,0-0.56,0.008-0.859,0.008c-2.751,0-4.87,1.753-4.87,3.57c0,1.79,2.322,2.909,5.073,2.909c3.137,0,4.87-1.78,4.87-3.57
    C18.233,18.953,17.81,18.093,16.5,17.168 M23.709,14.831H21.78v-1.929h-1.552v1.929h-1.929v1.553h1.929v1.93h1.552v-1.93h1.929
    V14.831z"></path>
    </g>
  </g>
  <g id="hull_icon_soundcloud">
    <g>
      <path fill="#E7411F" d="M16,32c8.837,0,16-7.164,16-16S24.837,0,16,0C7.162,0,0,7.164,0,16S7.162,32,16,32"></path>
      <path fill="#FFFFFF" d="M8.771,18.593c0.035,0,0.062-0.026,0.067-0.064l0.179-1.405L8.84,15.686
    c-0.006-0.037-0.033-0.064-0.068-0.064c-0.033,0-0.061,0.028-0.066,0.064l-0.156,1.438l0.156,1.405
    C8.711,18.566,8.738,18.593,8.771,18.593z M8.244,17.997L8.244,17.997L8.244,17.997L8.244,17.997z M8.181,18.06
    c0.032,0,0.06-0.025,0.063-0.062l0.14-0.874l-0.14-0.889c-0.004-0.037-0.031-0.062-0.063-0.062c-0.034,0-0.06,0.026-0.063,0.063
    L8,17.123l0.117,0.874C8.121,18.033,8.146,18.06,8.181,18.06z M9.48,15.418c-0.004-0.045-0.038-0.078-0.079-0.078
    c-0.043,0-0.077,0.033-0.08,0.078c0,0.002-0.149,1.705-0.149,1.705l0.149,1.644c0.003,0.045,0.037,0.078,0.08,0.078
    c0.041,0,0.075-0.033,0.079-0.077l0.17-1.645L9.48,15.418z M10.035,18.91c0.049,0,0.089-0.039,0.094-0.092l0,0l0.159-1.695
    l-0.159-1.752c-0.005-0.053-0.045-0.092-0.094-0.092c-0.05,0-0.09,0.039-0.095,0.092L9.8,17.123l0.141,1.695
    C9.945,18.871,9.985,18.91,10.035,18.91z M10.674,18.938c0.057,0,0.103-0.045,0.107-0.105l0,0l0.151-1.709l-0.151-1.625
    c-0.005-0.061-0.051-0.105-0.107-0.105c-0.058,0-0.104,0.046-0.107,0.105l-0.134,1.625l0.134,1.709
    C10.569,18.893,10.616,18.938,10.674,18.938z M11.581,17.125l-0.143-2.645c-0.003-0.067-0.057-0.119-0.121-0.119
    s-0.117,0.052-0.12,0.119l-0.125,2.645l0.125,1.708c0.003,0.066,0.056,0.12,0.12,0.12s0.118-0.054,0.121-0.121v0.001L11.581,17.125
    z M11.967,18.955c0.072,0,0.131-0.059,0.135-0.133v0.001l0.132-1.698l-0.132-3.249c-0.004-0.074-0.062-0.132-0.135-0.132
    s-0.132,0.058-0.135,0.132l-0.117,3.249l0.117,1.697C11.835,18.896,11.895,18.955,11.967,18.955z M12.621,13.459
    c-0.081,0-0.146,0.064-0.148,0.146l-0.109,3.52l0.109,1.681c0.003,0.082,0.067,0.146,0.148,0.146c0.08,0,0.145-0.063,0.148-0.146
    v0.001l0.123-1.681l-0.123-3.52C12.766,13.523,12.701,13.459,12.621,13.459z M13.28,18.955c0.089,0,0.159-0.07,0.162-0.16v0.001
    l0.114-1.671l-0.114-3.638c-0.003-0.091-0.073-0.161-0.162-0.161c-0.088,0-0.159,0.07-0.161,0.161l-0.102,3.638l0.102,1.671
    C13.121,18.885,13.192,18.955,13.28,18.955z M13.945,18.955c0.096,0,0.173-0.078,0.175-0.176v0.001l0.104-1.655L14.12,13.58
    c-0.002-0.098-0.079-0.175-0.175-0.175c-0.097,0-0.174,0.077-0.176,0.175l-0.093,3.545l0.093,1.655
    C13.771,18.877,13.849,18.955,13.945,18.955z M14.899,17.127l-0.095-3.418c-0.003-0.105-0.085-0.188-0.19-0.188
    c-0.104,0-0.187,0.082-0.188,0.188l-0.085,3.417l0.085,1.643c0.002,0.104,0.085,0.187,0.188,0.187c0.105,0,0.188-0.082,0.19-0.188
    v0.002L14.899,17.127z M15.29,18.96c0.109,0,0.201-0.091,0.203-0.202v0.001l0.085-1.632l-0.085-4.066
    c-0.002-0.11-0.094-0.201-0.203-0.201c-0.11,0-0.201,0.091-0.203,0.201l-0.077,4.064c0,0.003,0.077,1.634,0.077,1.634
    C15.089,18.869,15.18,18.96,15.29,18.96z M15.961,12.478c-0.117,0-0.215,0.097-0.217,0.216l-0.088,4.434l0.088,1.609
    c0.002,0.116,0.1,0.214,0.217,0.214c0.118,0,0.216-0.098,0.217-0.216v0.002l0.098-1.609l-0.098-4.435
    C16.177,12.574,16.079,12.478,15.961,12.478z M16.577,18.962c0.005,0,5.42,0.002,5.455,0.002c1.087,0,1.968-0.88,1.968-1.968
    c0-1.087-0.881-1.968-1.968-1.968c-0.271,0-0.527,0.055-0.762,0.152c-0.157-1.773-1.644-3.164-3.458-3.164
    c-0.443,0-0.877,0.087-1.26,0.235c-0.147,0.057-0.188,0.115-0.189,0.231v6.245C16.365,18.849,16.459,18.949,16.577,18.962z"></path>
    </g>
  </g>
  <g id="hull_icon_linkedin">
    <g>
      <path fill="#0D78B6" d="M16,32c8.838,0,16-7.164,16-16S24.838,0,16,0C7.163,0,0,7.164,0,16S7.163,32,16,32"></path>
      <path fill="#FFFFFF" d="M11.522,22.691H8.403v-9.98h3.119V22.691z M9.883,11.463H9.86c-1.129,0-1.86-0.764-1.86-1.73
    C8,8.748,8.754,8,9.905,8c1.15,0,1.857,0.746,1.88,1.73C11.785,10.697,11.056,11.463,9.883,11.463z M24,22.691h-3.537v-5.164
    c0-1.353-0.552-2.275-1.77-2.275c-0.93,0-1.446,0.623-1.688,1.224c-0.09,0.216-0.075,0.515-0.075,0.816v5.399h-3.504
    c0,0,0.046-9.148,0-9.98h3.504v1.566c0.207-0.685,1.326-1.662,3.112-1.662c2.216,0,3.958,1.436,3.958,4.527V22.691z"></path>
    </g>
  </g>
  <g id="hull_icon_instagram">
    <g>
      <path fill="#35679A" d="M16,32c8.837,0,16-7.164,16-16S24.837,0,16,0C7.162,0,0,7.164,0,16S7.162,32,16,32"></path>
      <path fill="#FFFFFF" d="M20.909,8h-9.815c-1.705,0-3.092,1.387-3.092,3.092v3.265v6.55c0,1.705,1.387,3.092,3.092,3.092h9.815
    c1.705,0,3.093-1.387,3.093-3.092v-6.55v-3.265C24.002,9.387,22.614,8,20.909,8z M21.797,9.845l0.354-0.002v0.353v2.359
    l-2.703,0.009l-0.01-2.712L21.797,9.845z M13.719,14.357c0.512-0.709,1.344-1.174,2.283-1.174s1.771,0.465,2.283,1.174
    c0.334,0.463,0.533,1.029,0.533,1.643c0,1.553-1.264,2.815-2.816,2.815S13.186,17.553,13.186,16
    C13.186,15.386,13.386,14.82,13.719,14.357z M22.443,20.908c0,0.846-0.688,1.533-1.534,1.533h-9.815
    c-0.846,0-1.533-0.687-1.533-1.533v-6.55h2.389c-0.206,0.508-0.322,1.062-0.322,1.643c0,2.413,1.963,4.375,4.375,4.375
    s4.375-1.962,4.375-4.375c0-0.581-0.117-1.135-0.322-1.643h2.389V20.908z"></path>
    </g>
  </g>
  <g id="hull_icon_tumblr">
    <g>
      <path fill="#36475D" d="M16,31.999c8.837,0,16-7.164,16-16c0-8.835-7.163-15.999-16-15.999S0,7.164,0,16
    C0,24.835,7.163,31.999,16,31.999"></path>
      <path fill="#FFFFFF" d="M16.174,8v4.044h3.796v2.511h-3.796v4.103c0,0.928,0.049,1.523,0.146,1.786
    c0.098,0.265,0.28,0.475,0.55,0.632c0.353,0.212,0.757,0.317,1.213,0.317c0.811,0,1.615-0.264,2.418-0.791v2.525
    c-0.685,0.32-1.303,0.547-1.857,0.676C18.089,23.936,17.49,24,16.846,24c-0.731,0-1.379-0.093-1.939-0.276
    c-0.562-0.187-1.042-0.448-1.438-0.791c-0.396-0.342-0.673-0.707-0.825-1.091c-0.153-0.385-0.229-0.943-0.229-1.675v-5.611h-1.77
    v-2.264c0.63-0.205,1.167-0.498,1.615-0.878c0.448-0.381,0.809-0.839,1.079-1.374C13.608,9.506,13.796,8.825,13.898,8H16.174z"></path>
    </g>
  </g>
  <g id="hull_icon_youtube">
    <g>
      <path fill="#CD3434" d="M16,32c8.836,0,16-7.164,16-16C32,7.164,24.836,0,16,0C7.163,0,0,7.164,0,16C0,24.836,7.163,32,16,32"></path>
      <path fill="#FFFFFF" d="M19.106,16.008l-5.238,3.077v-6.154L19.106,16.008z M24,18.86V13.14c0,0,0-2.757-2.758-2.757H10.756
    c0,0-2.756,0-2.756,2.757v5.721c0,0,0,2.757,2.756,2.757h10.486C21.242,21.617,24,21.617,24,18.86"></path>
    </g>
  </g>
  <g id="hull_icon_facebook">
    <g>
      <path fill="#35679A" d="M16,32c8.836,0,16-7.163,16-16c0-8.836-7.164-16-16-16S0,7.164,0,16C0,24.837,7.163,32,16,32"></path>
      <path fill="#FFFFFF" d="M12.14,13.291h1.654v-1.608c0-0.708,0.018-1.802,0.533-2.479C14.869,8.487,15.614,8,16.895,8
    c2.087,0,2.965,0.298,2.965,0.298l-0.414,2.451c0,0-0.689-0.2-1.332-0.2c-0.644,0-1.22,0.231-1.22,0.874v1.869h2.638l-0.184,2.394
    h-2.454V24h-3.101v-8.315H12.14V13.291z"></path>
    </g>
  </g>
  <g id="hull_icon_twitter">
    <g>
      <path fill="#28AAE2" d="M16,32c8.837,0,16-7.163,16-16c0-8.836-7.163-16-16-16C7.164,0,0,7.164,0,16C0,24.837,7.164,32,16,32"></path>
      <path fill="#FFFFFF" d="M24.014,11.809c-0.59,0.261-1.224,0.438-1.889,0.518c0.68-0.407,1.202-1.051,1.446-1.818
    c-0.636,0.376-1.339,0.65-2.09,0.797c-0.598-0.639-1.453-1.038-2.399-1.038c-1.815,0-3.287,1.473-3.287,3.288
    c0,0.258,0.027,0.508,0.085,0.749c-2.732-0.137-5.155-1.445-6.778-3.436c-0.283,0.487-0.444,1.052-0.444,1.655
    c0,1.14,0.58,2.146,1.462,2.737c-0.538-0.017-1.045-0.166-1.49-0.411v0.041c0,1.594,1.134,2.922,2.639,3.224
    c-0.275,0.077-0.565,0.116-0.866,0.116c-0.212,0-0.418-0.02-0.618-0.059c0.418,1.306,1.632,2.257,3.071,2.282
    c-1.126,0.883-2.544,1.408-4.084,1.408c-0.265,0-0.527-0.015-0.784-0.045c1.455,0.932,3.184,1.477,5.04,1.477
    c6.05,0,9.355-5.009,9.355-9.355c0-0.143-0.003-0.285-0.009-0.425C23.016,13.047,23.575,12.468,24.014,11.809"></path>
    </g>
  </g>
  <filter id='inset-shadow'>
    <!-- Shadow offset -->
    <feOffset
            dx='0'
            dy='0'
          />
    <!-- Shadow blur -->
    <feGaussianBlur
            stdDeviation='1'
            result='offset-blur'
          />
    <!-- Invert drop shadow to make an inset shadow-->
    <feComposite
            operator='out'
            in='SourceGraphic'
            in2='offset-blur'
            result='inverse'
          />
    <!-- Cut colour inside shadow -->
    <feFlood
            flood-color='black'
            flood-opacity='.95'
            result='color'
          />
    <feComposite
            operator='in'
            in='color'
            in2='inverse'
            result='shadow'
          />
    <!-- Placing shadow over element -->
    <feComposite
            operator='over'
            in='shadow'
            in2='SourceGraphic'
          />
  </filter>
</svg>
